<svg width="150" height="150" viewBox="0 0 150 150" xmlns="http://www.w3.org/2000/svg">
  <path d="M106.957 52.8419H111.294C112.796 52.8438 114.237 53.442 115.299 54.5052C116.361 55.5685 116.957 57.0098 116.957 58.5126V112.537C116.957 114.039 116.36 115.48 115.298 116.542C114.236 117.604 112.796 118.201 111.294 118.201H59.0217C58.2774 118.202 57.5402 118.056 56.8522 117.772C56.1643 117.488 55.5391 117.071 55.0124 116.545C54.4858 116.019 54.0679 115.394 53.7829 114.706C53.4978 114.019 53.3511 113.282 53.3511 112.537V108.347H49.0143C47.5116 108.345 46.0711 107.747 45.0091 106.684C43.9472 105.621 43.3507 104.179 43.3507 102.677V99.052H38.7066C37.2039 99.0502 35.7633 98.4519 34.7014 97.3886C33.6394 96.3254 33.043 94.8841 33.043 93.3814V39.3567C33.043 37.8539 33.6394 36.4127 34.7014 35.3494C35.7633 34.2862 37.2039 33.6879 38.7066 33.686H90.9854C92.4882 33.6879 93.9287 34.2862 94.9907 35.3494C96.0526 36.4127 96.6491 37.8539 96.6491 39.3567V42.9881H101.293C102.795 42.9881 104.236 43.5848 105.298 44.6469C106.36 45.7091 106.957 47.1497 106.957 48.6518V52.8419ZM43.3507 95.5742V48.6657C43.3507 47.1636 43.9474 45.7231 45.0095 44.6609C46.0717 43.5988 47.5122 43.0021 49.0143 43.0021H93.1573V39.3707C93.1573 38.794 92.9287 38.2408 92.5216 37.8324C92.1145 37.424 91.5621 37.1936 90.9854 37.1918H38.7066C38.13 37.1936 37.5775 37.424 37.1704 37.8324C36.7633 38.2408 36.5347 38.794 36.5347 39.3707V93.3954C36.5347 93.972 36.7633 94.5252 37.1704 94.9336C37.5775 95.342 38.13 95.5724 38.7066 95.5742H43.3507ZM47.4782 104.215C47.8853 104.623 48.4377 104.854 49.0143 104.855H101.293C101.87 104.854 102.422 104.623 102.829 104.215C103.236 103.806 103.465 103.253 103.465 102.677V48.6518C103.465 48.0758 103.236 47.5233 102.829 47.116C102.422 46.7087 101.869 46.4799 101.293 46.4799H49.0143C48.4383 46.4799 47.8859 46.7087 47.4786 47.116C47.0713 47.5233 46.8425 48.0758 46.8425 48.6518V102.677C46.8425 103.253 47.0711 103.806 47.4782 104.215ZM112.829 114.073C113.237 113.666 113.465 113.113 113.465 112.537V58.4986C113.465 57.9219 113.237 57.3688 112.83 56.9604C112.423 56.552 111.87 56.3216 111.294 56.3197H106.957V102.677C106.957 104.179 106.36 105.621 105.298 106.684C104.236 107.747 102.796 108.345 101.293 108.347H56.8429V112.537C56.8447 113.114 57.0751 113.666 57.4835 114.073C57.8919 114.481 58.4451 114.709 59.0217 114.709H111.294C111.87 114.709 112.422 114.48 112.829 114.073ZM51.6751 70.1543V52.884H68.6032V70.1543H51.6751ZM55.1668 66.6625H65.1114V56.3757H55.1668V66.6625ZM62.3529 59.2599H57.9254V63.7782H62.3529V59.2599ZM51.6751 98.633V81.3627H68.6032V98.633H51.6751ZM55.1668 95.1412H65.1114V84.8545H55.1668V95.1412ZM62.3529 87.7386H57.9254V92.257H62.3529V87.7386ZM96.6491 52.842V52.8839H98.6394V70.1542H81.7183V52.8839H93.1573V52.842H96.6491ZM85.2101 66.6624H95.1476V56.3757H85.2101V66.6624ZM92.3962 59.2599H87.9616V63.7782H92.3962V59.2599ZM51.6681 73.555H60.4045V78.0803H51.6681V73.555ZM98.4858 82.4171H90.3499V86.9424H98.4858V82.4171ZM81.823 86.9494V82.5428H86.2087V78.2549H98.6115V73.7296H86.2017V78.0175H81.7811V82.487H77.0952V87.0053H81.4738V91.4119H77.151V87.124H72.7165V91.6494H76.7879V95.9373H85.5243V91.4748H93.8836V86.9494H81.823ZM68.6591 73.555H64.2246V78.0803H68.6591V73.555ZM81.7602 78.0803V73.555H77.4583V69.0017H72.9819V82.459H77.4094V78.0803H81.7602ZM98.4858 91.4121H94.0513V95.9375H98.4858V91.4121ZM72.7165 52.7234H77.151V57.2487H72.7165V52.7234Z" fill="#FF8522"/>
</svg>
